<?xml version="1.0" encoding="UTF-8"?>
<svg id="Layer_2" data-name="Layer 2" xmlns="http://www.w3.org/2000/svg" viewBox="0 0 309.81 167.43">
  <defs>
    <style>
      .cls-1 {
        fill: #fff;
      }
    </style>
  </defs>
  <g id="Layer_1" data-name="Layer 1">
    <g>
      <path class="cls-1" d="M102.32.02c-1.85-.2-3.52,1.07-3.82,2.9-2.46,14.66-5.26,31.28-14.2,44.07-7.89,11.27-23.74,20.34-37.57,14.95-7.39-2.88-13.78-9.88-17.53-19.21-3.53-8.78-4.6-18.55-5.64-27.99-.19-1.76-1.67-3.1-3.45-3.12h-.03c-1.76,0-3.24,1.31-3.47,3.05L.03,142.9c-.25,1.92,1.11,3.67,3.02,3.92,1.92.26,3.67-1.1,3.92-3.02l13.56-104.85c.61,2.15,1.33,4.29,2.17,6.39,4.46,11.11,12.29,19.54,21.48,23.12,7.93,3.09,16.8,2.74,25.65-1.01,7.96-3.37,15.13-9.21,20.2-16.45,2.75-3.93,4.96-8.12,6.77-12.45l-4.95,105.73c-.09,1.93,1.4,3.57,3.33,3.66.06,0,.11,0,.17,0,1.86,0,3.41-1.46,3.49-3.34L105.44,3.66c.09-1.85-1.28-3.45-3.12-3.64Z"/>
      <path class="cls-1" d="M185.54,73.55V11.53c0-1.93-1.57-3.5-3.5-3.5s-3.5,1.57-3.5,3.5v61.61l-44.08-1.21-.32-63.68c-.01-1.93-1.55-3.48-3.52-3.48-1.93,0-3.49,1.58-3.48,3.52l.69,138.34c0,1.93,1.57,3.48,3.5,3.48h.02c1.93,0,3.49-1.58,3.48-3.52l-.34-67.66,44.04,1.21v65.37c0,1.93,1.57,3.5,3.5,3.5s3.5-1.57,3.5-3.5v-65.47c1.26-.5,2.17-1.71,2.21-3.15.04-1.51-.88-2.81-2.21-3.34Z"/>
      <path class="cls-1" d="M225.61,9.12c-1.93,0-3.5,1.57-3.5,3.5v137.25c0,1.93,1.57,3.5,3.5,3.5s3.5-1.57,3.5-3.5V12.62c0-1.93-1.57-3.5-3.5-3.5Z"/>
      <path class="cls-1" d="M308.86,161.53l-61.51-65.03c-4.84-5.12-8.9-9.8-9.56-15.29-.57-4.8,1.47-9.59,4.2-15.36l26.84-56.69c.83-1.75.08-3.83-1.67-4.66-1.75-.83-3.83-.08-4.66,1.67l-26.84,56.69c-2.53,5.35-5.69,12-4.83,19.19.99,8.24,7.02,14.62,11.42,19.27l61.51,65.03c.69.73,1.62,1.09,2.54,1.09.86,0,1.73-.32,2.4-.96,1.4-1.33,1.47-3.54.14-4.95Z"/>
    </g>
  </g>
</svg>