<?xml version="1.0" encoding="UTF-8"?>
<svg id="Layer_2" data-name="Layer 2" xmlns="http://www.w3.org/2000/svg" viewBox="0 0 15 13">
  <defs>
    <style>
      .cls-1 {
        fill: #fff;
      }
    </style>
  </defs>
  <g id="Layer_1" data-name="Layer 1">
    <g>
      <path class="cls-1" d="M1.5,3h12c.83,0,1.5-.67,1.5-1.5s-.67-1.5-1.5-1.5H1.5C.67,0,0,.67,0,1.5s.67,1.5,1.5,1.5Z"/>
      <path class="cls-1" d="M13.5,5H1.5c-.83,0-1.5.67-1.5,1.5s.67,1.5,1.5,1.5h12c.83,0,1.5-.67,1.5-1.5s-.67-1.5-1.5-1.5Z"/>
      <path class="cls-1" d="M13.5,10H1.5c-.83,0-1.5.67-1.5,1.5s.67,1.5,1.5,1.5h12c.83,0,1.5-.67,1.5-1.5s-.67-1.5-1.5-1.5Z"/>
    </g>
  </g>
</svg>