<?xml version="1.0" encoding="UTF-8"?>
<svg id="Layer_2" data-name="Layer 2" xmlns="http://www.w3.org/2000/svg" viewBox="0 0 9 8.57">
  <defs>
    <style>
      .cls-1 {
        fill: #f9c4d9;
      }
    </style>
  </defs>
  <g id="Layer_1" data-name="Layer 1">
    <path class="cls-1" d="M5.41,0h2.51c.34,0,.6.1.79.29s.29.46.29.79v6.41c0,.34-.1.6-.29.79-.19.19-.46.29-.79.29h-2.54c-.08,0-.12-.04-.12-.12v-2.68c0-.12-.05-.14-.14-.07l-.52.42s-.1.05-.17,0l-.54-.42c-.1-.07-.14-.05-.14.06v2.69c0,.08-.04.12-.12.12H1.08c-.34,0-.6-.1-.79-.29-.19-.19-.29-.46-.29-.79V1.08C0,.74.1.48.29.29s.46-.29.79-.29h2.53s.09.03.14.08l.67.55c.06.05.11.05.17,0l.67-.55c.06-.06.1-.08.14-.08Z"/>
  </g>
</svg>