<?xml version="1.0" encoding="UTF-8"?>
<svg id="Layer_2" data-name="Layer 2" xmlns="http://www.w3.org/2000/svg" viewBox="0 0 41.95 8.57">
  <defs>
    <style>
      .cls-1 {
        fill: #fff;
      }
    </style>
  </defs>
  <g id="Layer_1" data-name="Layer 1">
    <g>
      <path class="cls-1" d="M7.92,0h-2.51s-.09.03-.14.08l-.67.55c-.06.05-.11.05-.17,0L3.76.08c-.06-.06-.1-.08-.14-.08H1.08C.74,0,.48.1.29.29s-.29.46-.29.79v6.41c0,.34.1.6.29.79.19.19.46.29.79.29h2.54c.08,0,.12-.04.12-.12v-2.69c0-.11.05-.13.14-.06l.54.42c.06.05.12.05.17,0l.52-.42c.1-.07.14-.05.14.07v2.68c0,.08.04.12.12.12h2.54c.34,0,.6-.1.79-.29.19-.19.29-.46.29-.79V1.08c0-.34-.1-.6-.29-.79s-.46-.29-.79-.29Z"/>
      <path class="cls-1" d="M17.4,0h-6.84c-.34,0-.6.1-.79.29s-.29.46-.29.79v.78c0,.08.04.12.12.12h.92c.06,0,.09.01.1.04.01.03,0,.06-.04.1l-1.04,1.04s-.06.09-.06.14v4.09c0,.06.02.1.06.14l.96.96s.09.06.14.06h6.76c.34,0,.6-.1.79-.29.19-.19.29-.46.29-.79V1.08c0-.34-.1-.6-.29-.79s-.46-.29-.79-.29ZM12.38,6.49c0,.17-.05.3-.15.4-.1.1-.23.14-.4.14h-.41c-.17,0-.3-.05-.4-.14-.1-.1-.14-.23-.14-.4v-.41c0-.17.05-.3.14-.4.1-.1.23-.15.4-.15h.41c.17,0,.3.05.4.15.1.1.15.23.15.4v.41Z"/>
      <path class="cls-1" d="M27.9,5.1l-.49-.54s-.04-.06-.04-.08c0-.02.03-.04.07-.06.16-.06.29-.15.38-.27.09-.12.14-.27.14-.44V1.08c0-.34-.1-.6-.29-.79s-.46-.29-.79-.29h-6.84c-.34,0-.6.1-.79.29s-.29.46-.29.79v7.37c0,.08.04.12.12.12h4.55c.18,0,.33-.04.43-.11.1-.08.16-.18.16-.31v-.54c0-.17.05-.3.15-.4s.23-.15.4-.15h.41c.17,0,.3.05.4.15s.14.23.14.4v.78c0,.06.02.1.06.13.04.03.1.05.17.05h.94c.23,0,.45-.07.65-.22.14-.1.24-.23.32-.41.08-.18.12-.37.12-.58v-2.12c-.01-.06-.03-.1-.07-.14ZM25.73,3.52c0,.17-.05.3-.14.4s-.23.14-.4.14h-.41c-.17,0-.3-.05-.4-.14-.1-.1-.15-.23-.15-.4v-.4c0-.17.05-.3.15-.4s.23-.15.4-.15h.41c.17,0,.3.05.4.15.1.1.14.23.14.4v.4Z"/>
      <path class="cls-1" d="M31.87,2.54h-2.34c-.34,0-.6.1-.79.29s-.29.46-.29.79v3.86c0,.34.1.6.29.79.19.19.46.29.79.29h2.34c.34,0,.6-.1.79-.29.19-.19.29-.46.29-.79v-3.86c0-.34-.1-.6-.29-.79s-.46-.29-.79-.29Z"/>
      <path class="cls-1" d="M29.1,2.06h3.19c.16,0,.29-.05.4-.16.1-.1.16-.23.16-.38v-.97c0-.16-.05-.29-.16-.4s-.24-.16-.4-.16h-3.19c-.15,0-.28.05-.38.16s-.16.24-.16.4v.97c0,.15.05.28.16.38.1.1.23.16.38.16Z"/>
      <path class="cls-1" d="M41.89,5.62s.06-.09.06-.14V1.08c0-.34-.1-.6-.29-.79s-.46-.29-.79-.29h-6.36c-.34,0-.6.1-.79.29s-.29.46-.29.79v6.32c0,.06.02.1.06.14l.96.96s.09.06.14.06h6.28c.34,0,.6-.1.79-.29.19-.19.29-.46.29-.79v-.31c0-.08-.04-.12-.12-.12h-.92s-.08-.01-.09-.04c-.01-.03,0-.06.03-.1l1.04-1.3ZM40.55,3.5c0,.17-.05.3-.14.4-.1.1-.23.15-.4.15h-.41c-.17,0-.3-.05-.4-.15-.1-.1-.15-.23-.15-.4v-.4c0-.17.05-.3.15-.4s.23-.14.4-.14h.41c.17,0,.3.05.4.14.1.1.14.23.14.4v.4Z"/>
    </g>
  </g>
</svg>